cover
 
http://img517.imageshack.us/img517/9931/123ka.png

Genre:Sci-Fi | Thriller | War
Language:English
IMDb:http://www.imdb.com/title/tt1531911/
Source:720p BluRay DTS x264-DNL


General
Complete name :Princess Of Mars 2009 720p BRRip H264 Feel-Free
Format : MPEG-4
Format profile : Base Media
Codec ID : mp42
File size : 1.43 GiB
Duration : 1h 33mn
Overall bit rate : 2 191 Kbps
Video #1
Codec ID : avc1
Codec ID/Info : Advanced Video Coding
Duration : 1h 33mn
Bit rate mode : Variable
Bit rate : 1 710 Kbps
Width : 1 280 pixels
Height : 720 pixels
Display aspect ratio : 16:9
Frame rate mode : Constant
Frame rate : 23.976 fps
Resolution : 24 bits
Colorimetry : 4:2:0
Scan type : Progressive
Bits/(Pixel*Frame) : 0.077
Stream size : 1.12 GiB (78%)
Audio #2
ID : 2
Format : AAC
Format/Info : Advanced Audio Codec
Format version : Version 4
Format profile : LC
Format settings, SBR : No
Codec ID : 40
Duration : 1h 33mn
Bit rate mode : Constant
Bit rate : 477 Kbps
Nominal bit rate : 480 Kbps
Channel(s) : 6 channels
Channel positions : Front: L C R, Rear: L R, LFE
Sampling rate : 48.0 KHz
Resolution : 16 bits
Stream size : 319 MiB (22%)

screens
 
http://rapidhdd.com/images/58169vlcsnap-2010-11-14-06h41m03s147.png 
http://www.rapidhdd.com/images/915337vlcsnap-2010-11-14-06h42m15s84.png 
http://www.rapidhdd.com/images/988686vlcsnap-2010-11-14-06h42m26s217.png 
http://www.rapidhdd.com/images/785902vlcsnap-2010-11-14-06h42m44s138.png 
http://www.rapidhdd.com/images/182079vlcsnap-2010-11-14-06h42m59s32.png 
http://www.rapidhdd.com/images/657913vlcsnap-2010-11-14-06h45m40s69.png